<?xml version="1.0" encoding="utf-8"?>
<svg version="1.1" id="Layer_1" xmlns="http://www.w3.org/2000/svg" xmlns:xlink="http://www.w3.org/1999/xlink" x="0px" y="0px"
	 viewBox="0 0 420.4 369.8" style="enable-background:new 0 0 420.4 369.8;" xml:space="preserve">
<style type="text/css">
	.st0{fill:#FFFFFF;stroke:#FFFFFF;stroke-miterlimit:10;}
	.st1{fill:#EB2227;}
	.st2{fill:#FFFFFF;}
</style>
<g id="XMLID_14_">
	<path id="XMLID_23_" class="st0" d="M381.7,369.8H36.8C16.5,369.8,0,353.4,0,333.1V36.8C0,16.5,16.5,0,36.8,0h344.9
		c20.3,0,36.8,16.5,36.8,36.8v296.3C418.4,353.4,402,369.8,381.7,369.8z"/>
	<g id="XMLID_15_">
		<path id="XMLID_22_" class="st1" d="M343.4,321.2c6.9-0.2,13.6-3.8,17.3-10.2c3.7-6.4,3.5-14,0.2-20.1L226.7,58.5
			c-3.6-5.9-10.1-9.8-17.5-9.8c-7.4,0-13.9,3.9-17.5,9.8L57.5,290.9c-3.3,6.1-3.5,13.7,0.2,20.1c3.7,6.4,10.4,10.1,17.3,10.2H343.4z
			"/>
		<g id="XMLID_16_">
			<polygon id="XMLID_21_" class="st2" points="290.7,225.9 290.7,213.2 286.2,213.2 286.2,205.9 275.9,193 265.7,205.9 
				265.7,213.2 252.9,213.2 252.9,205.9 242.7,193 232.4,205.9 232.4,213.2 219.8,213.2 219.8,205.9 209.5,193 199.3,205.9 
				199.3,213.2 186.5,213.2 186.5,205.9 176.3,193 166.1,205.9 166.1,213.2 153.3,213.2 153.3,205.9 143.1,193 132.9,205.9 
				132.9,213.2 127.7,213.2 127.7,225.9 132.9,225.9 132.9,260.9 127.7,260.9 127.7,273.6 132.9,273.6 132.9,286.5 153.3,286.5 
				153.3,273.6 166.1,273.6 166.1,286.5 186.5,286.5 186.5,273.6 199.3,273.6 199.3,286.5 219.8,286.5 219.8,273.6 232.4,273.6 
				232.4,286.5 252.9,286.5 252.9,273.6 265.7,273.6 265.7,286.5 286.2,286.5 286.2,273.6 290.7,273.6 290.7,260.9 286.2,260.9 
				286.2,225.9 			"/>
			<rect id="XMLID_20_" x="153.3" y="225.9" class="st1" width="12.7" height="35"/>
			<rect id="XMLID_19_" x="186.5" y="225.9" class="st1" width="12.7" height="35"/>
			<rect id="XMLID_18_" x="219.8" y="225.9" class="st1" width="12.7" height="35"/>
			<rect id="XMLID_17_" x="252.9" y="225.9" class="st1" width="12.8" height="35"/>
		</g>
	</g>
</g>
</svg>
